<svg width="74" height="95" viewBox="0 0 74 95" fill="none" xmlns="http://www.w3.org/2000/svg">
<g clip-path="url(#clip0)">
<path d="M73.5414 90.4482C73.5414 92.9272 71.3689 94.942 68.6847 94.942L5.8796 95.0083C3.74301 95.0083 1.92959 93.7398 1.27425 91.9737C1.10368 91.5177 1.01391 91.0368 1.01391 90.5311L0.915161 6.88167C0.915161 4.40261 3.08766 2.38786 5.77187 2.38786L63.442 2.32982L68.577 2.32153C71.2612 2.32153 73.4427 4.32799 73.4427 6.80704L73.5414 90.4482Z" fill="url(#paint0_linear)"/>
<path d="M67.0329 89.9673L7.52245 90.0253C6.0771 90.0253 4.91005 88.9474 4.91005 87.6126L4.82028 9.76697C4.82028 8.43209 5.98733 7.35424 7.43267 7.35424L66.9341 7.2962C68.3795 7.2962 69.5465 8.37405 69.5465 9.70893L69.6363 87.5545C69.6453 88.8811 68.4782 89.9673 67.0329 89.9673Z" fill="white"/>
<path d="M58.675 13.7136L15.2698 13.7633C13.8335 13.7633 12.6574 12.6855 12.6574 11.3589L12.6485 4.67623C12.6485 3.34964 13.8155 2.2635 15.2519 2.2635L58.666 2.22205C60.1024 2.22205 61.2784 3.2999 61.2784 4.62648L61.2874 11.3091C61.2784 12.6357 60.1114 13.7136 58.675 13.7136ZM15.2519 3.49059C14.5517 3.49059 13.9771 4.02123 13.9771 4.66793L13.9861 11.3506C13.9861 11.9973 14.5606 12.5279 15.2609 12.5279L58.675 12.4865C59.3752 12.4865 59.9498 11.9559 59.9498 11.3091L59.9408 4.62648C59.9408 3.97977 59.3663 3.44914 58.666 3.44914L15.2519 3.49059Z" fill="url(#paint1_linear)"/>
<path d="M57.4451 5.11564L16.9127 5.1571C16.4638 5.1571 16.1047 4.82545 16.1047 4.41089V0.787659C16.1047 0.373102 16.4638 0.0414557 16.9127 0.0414557L57.4362 0C57.885 0 58.2441 0.331646 58.2441 0.746203V4.36944C58.2531 4.78399 57.894 5.11564 57.4451 5.11564Z" fill="url(#paint2_linear)"/>
<path d="M16.9486 5.15708L57.4092 5.11562C57.8761 5.11562 58.2531 4.7674 58.2531 4.33626V2.56195L16.0958 2.60341V4.37771C16.0958 4.80885 16.4818 5.15708 16.9486 5.15708Z" fill="#58D6F4"/>
<path d="M31.1686 81.2118L27.6675 61.6447L24.8307 70.1597L16.7152 70.168C16.2214 70.168 15.8264 69.8032 15.8264 69.3472C15.8264 68.8912 16.2214 68.5264 16.7152 68.5264L23.529 68.5181L28.2061 54.4977L31.7073 74.1146L36.2498 60.6415L38.6647 67.0257L44.1049 54.846L49.3925 74.1643L51.3855 68.0206L57.2207 68.0123C57.7145 68.0123 58.1095 68.3771 58.1095 68.8331C58.1095 69.2892 57.7145 69.654 57.2207 69.654L52.7051 69.6623L49.2489 80.3164L43.7009 60.0528L38.521 71.6355L36.3395 65.8732L31.1686 81.2118Z" fill="#58D6F4"/>
<path d="M25.1538 43.4871L13.7437 43.4954C11.9033 43.4954 10.3952 42.1107 10.3952 40.411L10.3772 25.6777C10.3772 23.978 11.8764 22.5851 13.7167 22.5851L25.1269 22.5768C26.9672 22.5768 28.4754 23.9614 28.4754 25.6611L28.4934 40.3945C28.4934 42.0942 26.9942 43.4788 25.1538 43.4871ZM13.7078 23.4805C12.3971 23.4805 11.3378 24.4672 11.3378 25.6777L11.3557 40.411C11.3557 41.6216 12.424 42.5999 13.7347 42.5999L25.1448 42.5916C26.4555 42.5916 27.5148 41.605 27.5148 40.3945L27.4969 25.6611C27.4969 24.4506 26.4286 23.4722 25.1179 23.4722L13.7078 23.4805Z" fill="url(#paint3_linear)"/>
<path d="M19.4353 40.6598C24.8306 40.6515 26.5094 37.7745 26.5094 37.7745C26.267 37.4926 25.9618 37.2439 25.5488 36.9951C24.1304 36.1411 22.9903 35.7763 22.5145 35.4115C22.0297 35.055 21.7604 34.5327 21.7604 34.5327L21.4641 34.6985C21.4641 34.6985 21.2846 34.1264 21.3834 33.2558C21.3834 33.2558 21.8053 33.1563 22.1195 31.838C22.6222 31.9292 23.2147 30.7519 22.9364 30.3207C22.7569 30.0388 22.5414 30.0637 22.3888 30.1301C22.5414 29.5414 23.2327 26.283 19.4263 26.283C15.6199 26.283 16.3112 29.5414 16.4728 30.1301C16.3202 30.0637 16.1047 30.0388 15.9252 30.3207C15.6469 30.7519 16.2483 31.9292 16.7511 31.838C17.0653 33.1563 17.4962 33.2475 17.4962 33.2475C17.6039 34.1098 17.4154 34.6902 17.4154 34.6902L17.1191 34.5244C17.1191 34.5244 16.8498 35.0384 16.365 35.4032C15.8803 35.768 14.7491 36.1411 13.3307 36.9951C12.9178 37.2439 12.6036 37.4926 12.3702 37.7745C12.3612 37.7911 14.0489 40.6681 19.4353 40.6598Z" fill="url(#paint4_linear)"/>
<path d="M54.9674 27.2779L33 27.3028C32.587 27.3028 32.2549 26.996 32.2549 26.6146V26.4986C32.2549 26.1172 32.587 25.8104 33 25.8104L54.9674 25.7855C55.3804 25.7855 55.7125 26.0923 55.7125 26.4737V26.5898C55.7125 26.9712 55.3714 27.2779 54.9674 27.2779Z" fill="url(#paint5_linear)"/>
<path d="M46.8879 31.1415L33 31.1581C32.587 31.1581 32.2549 30.8513 32.2549 30.4699V30.3539C32.2549 29.9725 32.587 29.6657 33 29.6657L46.8879 29.6491C47.3008 29.6491 47.633 29.9559 47.633 30.3373V30.4534C47.633 30.8348 47.3008 31.1415 46.8879 31.1415Z" fill="url(#paint6_linear)"/>
<path opacity="0.6" d="M62.5442 35.7348L33.009 35.768C32.596 35.768 32.2639 35.4612 32.2639 35.0798V34.9638C32.2639 34.5824 32.596 34.2756 33.009 34.2756L62.5442 34.2424C62.9572 34.2424 63.2894 34.5492 63.2894 34.9306V35.0467C63.2804 35.4281 62.9482 35.7348 62.5442 35.7348Z" fill="url(#paint7_linear)"/>
<path opacity="0.6" d="M61.9069 48.6442L12.6395 48.6939C12.2176 48.6939 11.8675 48.3789 11.8675 47.9809V47.9146C11.8675 47.5249 12.2086 47.2015 12.6395 47.2015L61.9069 47.1518C62.3288 47.1518 62.6789 47.4669 62.6789 47.8648V47.9312C62.6789 48.3291 62.3288 48.6442 61.9069 48.6442Z" fill="url(#paint8_linear)"/>
<path opacity="0.6" d="M62.5442 40.2452L33.009 40.2784C32.596 40.2784 32.2639 39.9716 32.2639 39.5902V39.4741C32.2639 39.0927 32.596 38.786 33.009 38.786L62.5442 38.7528C62.9572 38.7528 63.2894 39.0596 63.2894 39.441V39.5571C63.2894 39.9384 62.9572 40.2452 62.5442 40.2452Z" fill="url(#paint9_linear)"/>
</g>
<defs>
<linearGradient id="paint0_linear" x1="-9.14221" y1="34.748" x2="82.0971" y2="66.8467" gradientUnits="userSpaceOnUse">
<stop stop-color="#6CBCFC"/>
<stop offset="0.1713" stop-color="#5EABFC"/>
<stop offset="0.4084" stop-color="#509AFC"/>
<stop offset="0.6698" stop-color="#4890FC"/>
<stop offset="1" stop-color="#458DFC"/>
</linearGradient>
<linearGradient id="paint1_linear" x1="-4.74222" y1="-21.375" x2="59.2054" y2="11.9691" gradientUnits="userSpaceOnUse">
<stop stop-color="#CFE9FF"/>
<stop offset="1" stop-color="#A1D6FB"/>
</linearGradient>
<linearGradient id="paint2_linear" x1="16.0944" y1="2.57952" x2="58.2524" y2="2.57952" gradientUnits="userSpaceOnUse">
<stop stop-color="#B0F4FF"/>
<stop offset="1" stop-color="#69DCFC"/>
</linearGradient>
<linearGradient id="paint3_linear" x1="16.2198" y1="29.2075" x2="25.7801" y2="42.5702" gradientUnits="userSpaceOnUse">
<stop stop-color="#6CBCFC"/>
<stop offset="1" stop-color="#458DFC"/>
</linearGradient>
<linearGradient id="paint4_linear" x1="15.0712" y1="30.0293" x2="24.6315" y2="43.3921" gradientUnits="userSpaceOnUse">
<stop stop-color="#B0F4FF"/>
<stop offset="0.0994384" stop-color="#A1EFFE"/>
<stop offset="0.2994" stop-color="#88E7FD"/>
<stop offset="0.5095" stop-color="#77E1FD"/>
<stop offset="0.7344" stop-color="#6CDDFC"/>
<stop offset="1" stop-color="#69DCFC"/>
</linearGradient>
<linearGradient id="paint5_linear" x1="32.2561" y1="26.551" x2="55.7078" y2="26.5662" gradientUnits="userSpaceOnUse">
<stop stop-color="#6CBCFC"/>
<stop offset="1" stop-color="#458DFC"/>
</linearGradient>
<linearGradient id="paint6_linear" x1="32.2604" y1="30.4036" x2="47.632" y2="30.4036" gradientUnits="userSpaceOnUse">
<stop stop-color="#6CBCFC"/>
<stop offset="1" stop-color="#458DFC"/>
</linearGradient>
<linearGradient id="paint7_linear" x1="32.2655" y1="35.0098" x2="63.2843" y2="35.0098" gradientUnits="userSpaceOnUse">
<stop stop-color="#6CBCFC"/>
<stop offset="1" stop-color="#458DFC"/>
</linearGradient>
<linearGradient id="paint8_linear" x1="11.867" y1="47.9272" x2="62.6764" y2="47.9272" gradientUnits="userSpaceOnUse">
<stop stop-color="#6CBCFC"/>
<stop offset="1" stop-color="#458DFC"/>
</linearGradient>
<linearGradient id="paint9_linear" x1="32.2705" y1="39.5191" x2="63.2893" y2="39.5191" gradientUnits="userSpaceOnUse">
<stop stop-color="#6CBCFC"/>
<stop offset="1" stop-color="#458DFC"/>
</linearGradient>
<clipPath id="clip0">
<rect width="72.6263" height="95" fill="white" transform="translate(0.915161)"/>
</clipPath>
</defs>
</svg>
