<svg width="100" height="90" viewBox="0 0 100 90" fill="none" xmlns="http://www.w3.org/2000/svg">
<g clip-path="url(#clip0)">
<path d="M60.9296 43.3151L51.1005 51.9802L9.59383 88.5661C8.50416 89.5289 7.10629 90.0103 5.70843 90.0103C4.17848 90.0103 2.64853 89.4367 1.53684 88.2998C-0.653513 86.0669 -0.367335 82.5743 2.15323 80.6692L51.1005 43.8272L56.4939 39.7712L60.9296 43.3151Z" fill="url(#paint0_linear)"/>
<path d="M50.6713 52.4206L40.9963 60.9423L40.1048 52.185L45.399 48.2007L50.6713 52.4206Z" fill="#3A81D6" fill-opacity="0.8"/>
<path d="M99.6516 29.9078C99.6516 46.4288 85.2547 59.8259 67.5117 59.8259C56.3288 59.8259 46.4777 54.5101 40.7211 46.4391C37.342 41.7071 35.3718 36.0225 35.3718 29.9078C35.3718 13.3868 49.7687 0 67.5117 0C75.5247 0 82.8442 2.72448 88.4687 7.23114C95.3149 12.7211 99.6516 20.8433 99.6516 29.9078Z" fill="url(#paint1_linear)"/>
<path d="M67.5117 53.2093C81.3412 53.2093 92.5522 42.7769 92.5522 29.9078C92.5522 17.0388 81.3412 6.60635 67.5117 6.60635C53.6822 6.60635 42.4712 17.0388 42.4712 29.9078C42.4712 42.7769 53.6822 53.2093 67.5117 53.2093Z" fill="white"/>
<path opacity="0.06" d="M99.6516 29.9078C99.6516 46.4288 85.2547 59.8259 67.5117 59.8259C56.3288 59.8259 46.4777 54.5101 40.7211 46.4391C76.9666 43.6941 86.5205 15.1178 88.4797 7.23114C95.3149 12.7211 99.6516 20.8433 99.6516 29.9078Z" fill="#1A6FB5" fill-opacity="0.5"/>
<path d="M67.5117 29.959C70.4175 29.959 72.7729 27.7672 72.7729 25.0632C72.7729 22.3592 70.4175 20.1673 67.5117 20.1673C64.6059 20.1673 62.2504 22.3592 62.2504 25.0632C62.2504 27.7672 64.5949 29.959 67.5117 29.959ZM67.5117 32.407C64.0005 32.407 56.9892 34.0458 56.9892 37.3028V38.5319C56.9892 39.2079 57.5835 39.761 58.31 39.761H76.7354C77.4618 39.761 78.0562 39.2079 78.0562 38.5319V37.3028C78.0342 34.056 71.0229 32.407 67.5117 32.407Z" fill="url(#paint2_linear)"/>
</g>
<defs>
<linearGradient id="paint0_linear" x1="6.20625" y1="84.3265" x2="54.6981" y2="36.953" gradientUnits="userSpaceOnUse">
<stop stop-color="#67C3F3"/>
<stop offset="1" stop-color="#5A98F2"/>
</linearGradient>
<linearGradient id="paint1_linear" x1="54.2185" y1="2.11336" x2="75.7731" y2="54.1859" gradientUnits="userSpaceOnUse">
<stop stop-color="#67C3F3"/>
<stop offset="1" stop-color="#5A98F2"/>
</linearGradient>
<linearGradient id="paint2_linear" x1="59.9043" y1="28.3947" x2="78.4104" y2="38.0944" gradientUnits="userSpaceOnUse">
<stop stop-color="#B0F4FF"/>
<stop offset="0.071077" stop-color="#A6F1FF"/>
<stop offset="0.2937" stop-color="#8BE8FD"/>
<stop offset="0.5209" stop-color="#78E1FD"/>
<stop offset="0.7536" stop-color="#6DDDFC"/>
<stop offset="1" stop-color="#69DCFC"/>
</linearGradient>
<clipPath id="clip0">
<rect width="99.5897" height="90" fill="white" transform="translate(0.0619202)"/>
</clipPath>
</defs>
</svg>
