<svg width="76" height="95" viewBox="0 0 76 95" fill="none" xmlns="http://www.w3.org/2000/svg">
<path d="M75.348 4.31029V90.7055C75.348 93.0896 73.2623 95.0158 70.681 95.0158H4.84741C2.26603 95 0.18042 93.0738 0.18042 90.7055V4.31029C0.18042 1.92621 2.26603 0 4.84741 0H70.6981C73.2623 0 75.348 1.92621 75.348 4.31029Z" fill="url(#paint0_linear)"/>
<path d="M70.5595 7.94666V87.0533C70.5595 89.2363 68.7269 91 66.4587 91H8.61222C6.34403 90.9855 4.51144 89.2218 4.51144 87.0533V7.94666C4.51144 5.76371 6.34403 4 8.61222 4H66.4737C68.7269 4 70.5595 5.76371 70.5595 7.94666Z" fill="url(#paint1_linear)"/>
<path d="M29.2751 18.2516V22.183C29.2751 22.4672 29.0358 22.6882 28.7281 22.6882H23.514C23.2063 22.6882 22.967 22.9093 22.967 23.1935V28.009C22.967 28.2932 22.7277 28.5142 22.4199 28.5142H18.1632C17.8555 28.5142 17.6162 28.2932 17.6162 28.009V23.1935C17.6162 22.9093 17.3769 22.6882 17.0691 22.6882H11.8722C11.5645 22.6882 11.3252 22.4672 11.3252 22.183V18.2516C11.3252 17.9674 11.5645 17.7464 11.8722 17.7464H17.0862C17.394 17.7464 17.6333 17.5254 17.6333 17.2412V12.4256C17.6333 12.1415 17.8726 11.9204 18.1803 11.9204H22.437C22.7448 11.9204 22.9841 12.1415 22.9841 12.4256V17.2412C22.9841 17.5254 23.2234 17.7464 23.5311 17.7464H28.7281C29.0358 17.7464 29.2751 17.9674 29.2751 18.2516Z" fill="url(#paint2_linear)"/>
<path opacity="0.5" d="M63.6036 39.6768H11.9248C11.5829 39.6768 11.3094 39.4242 11.3094 39.1084V37.2927C11.3094 36.9769 11.5829 36.7243 11.9248 36.7243H63.6036C63.9455 36.7243 64.219 36.9769 64.219 37.2927V39.1084C64.2019 39.4242 63.9455 39.6768 63.6036 39.6768Z" fill="url(#paint3_linear)"/>
<path d="M63.6035 17.0517H37.9608C37.6189 17.0517 37.3453 16.7991 37.3453 16.4833V14.6834C37.3453 14.3677 37.6189 14.1151 37.9608 14.1151H63.6035C63.9454 14.1151 64.219 14.3677 64.219 14.6834V16.4991C64.2019 16.7991 63.9454 17.0517 63.6035 17.0517Z" fill="url(#paint4_linear)"/>
<path opacity="0.5" d="M56.0133 24.725H37.9608C37.6189 24.725 37.3453 24.4724 37.3453 24.1566V22.3409C37.3453 22.0251 37.6189 21.7725 37.9608 21.7725H56.0133C56.3552 21.7725 56.6287 22.0251 56.6287 22.3409V24.1566C56.6116 24.4724 56.3552 24.725 56.0133 24.725Z" fill="url(#paint5_linear)"/>
<path opacity="0.5" d="M63.6036 48.2973H11.9248C11.5829 48.2973 11.3094 48.0447 11.3094 47.7289V45.9132C11.3094 45.5975 11.5829 45.3448 11.9248 45.3448H63.6036C63.9455 45.3448 64.219 45.5975 64.219 45.9132V47.7289C64.2019 48.0447 63.9455 48.2973 63.6036 48.2973Z" fill="url(#paint6_linear)"/>
<path opacity="0.5" d="M63.6036 56.9179H11.9248C11.5829 56.9179 11.3094 56.6653 11.3094 56.3495V54.5338C11.3094 54.2181 11.5829 53.9655 11.9248 53.9655H63.6036C63.9455 53.9655 64.219 54.2181 64.219 54.5338V56.3653C64.2019 56.6653 63.9455 56.9179 63.6036 56.9179Z" fill="url(#paint7_linear)"/>
<path opacity="0.5" d="M63.6036 65.5543H11.9248C11.5829 65.5543 11.3094 65.3017 11.3094 64.9859V63.1702C11.3094 62.8544 11.5829 62.6018 11.9248 62.6018H63.6036C63.9455 62.6018 64.219 62.8544 64.219 63.1702V64.9859C64.2019 65.3017 63.9455 65.5543 63.6036 65.5543Z" fill="url(#paint8_linear)"/>
<path opacity="0.5" d="M63.6036 74.1749H11.9248C11.5829 74.1749 11.3094 73.9223 11.3094 73.6065V71.7908C11.3094 71.475 11.5829 71.2224 11.9248 71.2224H63.6036C63.9455 71.2224 64.219 71.475 64.219 71.7908V73.6065C64.2019 73.9223 63.9455 74.1749 63.6036 74.1749Z" fill="url(#paint9_linear)"/>
<path opacity="0.5" d="M63.6036 82.7954H11.9248C11.5829 82.7954 11.3094 82.5428 11.3094 82.227V80.4113C11.3094 80.0956 11.5829 79.843 11.9248 79.843H63.6036C63.9455 79.843 64.219 80.0956 64.219 80.4113V82.227C64.2019 82.5428 63.9455 82.7954 63.6036 82.7954Z" fill="url(#paint10_linear)"/>
<path opacity="0.1" d="M75.348 4.31029V90.7055C75.348 93.0896 73.2623 95.0158 70.681 95.0158H4.84741C2.26603 95 0.18042 93.0738 0.18042 90.7055V89.2056C40.337 73.8906 59.0391 15.1571 63.2617 0H70.681C73.2623 0 75.348 1.92621 75.348 4.31029Z" fill="#1A6FB5" fill-opacity="0.4"/>
<defs>
<linearGradient id="paint0_linear" x1="103.042" y1="126" x2="4.37962" y2="-13.0871" gradientUnits="userSpaceOnUse">
<stop offset="0.3061" stop-color="#5BA7FC"/>
<stop offset="1" stop-color="#69B8FC"/>
</linearGradient>
<linearGradient id="paint1_linear" x1="9.51821" y1="7.04564" x2="57.3527" y2="81.5992" gradientUnits="userSpaceOnUse">
<stop offset="0.3061" stop-color="white"/>
<stop offset="1" stop-color="white"/>
</linearGradient>
<linearGradient id="paint2_linear" x1="11.0067" y1="9.50003" x2="25.4387" y2="35.0231" gradientUnits="userSpaceOnUse">
<stop stop-color="#B0F4FF"/>
<stop offset="0.368525" stop-color="#80E4FD"/>
<stop offset="1" stop-color="#6CDDFC"/>
</linearGradient>
<linearGradient id="paint3_linear" x1="11.3226" y1="38.2072" x2="64.2097" y2="38.2072" gradientUnits="userSpaceOnUse">
<stop stop-color="#6CBCFC"/>
<stop offset="1" stop-color="#458DFC"/>
</linearGradient>
<linearGradient id="paint4_linear" x1="37.3458" y1="15.5845" x2="64.2097" y2="15.5845" gradientUnits="userSpaceOnUse">
<stop stop-color="#6CBCFC"/>
<stop offset="1" stop-color="#458DFC"/>
</linearGradient>
<linearGradient id="paint5_linear" x1="37.3458" y1="23.2616" x2="56.6197" y2="23.2616" gradientUnits="userSpaceOnUse">
<stop stop-color="#6CBCFC"/>
<stop offset="1" stop-color="#458DFC"/>
</linearGradient>
<linearGradient id="paint6_linear" x1="11.3226" y1="46.8317" x2="64.2097" y2="46.8317" gradientUnits="userSpaceOnUse">
<stop stop-color="#6CBCFC"/>
<stop offset="1" stop-color="#458DFC"/>
</linearGradient>
<linearGradient id="paint7_linear" x1="11.3226" y1="55.4562" x2="64.2097" y2="55.4562" gradientUnits="userSpaceOnUse">
<stop stop-color="#6CBCFC"/>
<stop offset="1" stop-color="#458DFC"/>
</linearGradient>
<linearGradient id="paint8_linear" x1="11.3226" y1="64.0807" x2="64.2097" y2="64.0807" gradientUnits="userSpaceOnUse">
<stop stop-color="#6CBCFC"/>
<stop offset="1" stop-color="#458DFC"/>
</linearGradient>
<linearGradient id="paint9_linear" x1="11.3226" y1="72.7052" x2="64.2097" y2="72.7052" gradientUnits="userSpaceOnUse">
<stop stop-color="#6CBCFC"/>
<stop offset="1" stop-color="#458DFC"/>
</linearGradient>
<linearGradient id="paint10_linear" x1="11.3226" y1="81.3296" x2="64.2097" y2="81.3296" gradientUnits="userSpaceOnUse">
<stop stop-color="#6CBCFC"/>
<stop offset="1" stop-color="#458DFC"/>
</linearGradient>
</defs>
</svg>
