<svg width="85" height="72" viewBox="0 0 85 72" fill="none" xmlns="http://www.w3.org/2000/svg">
<g clip-path="url(#clip0)">
<path d="M70.3131 14.0108H14.2925V71.1274H70.3131V14.0108Z" fill="url(#paint0_linear)"/>
<path d="M14.0612 14.0108C14.1288 14.0108 14.1964 14.0383 14.293 14.0658C14.293 33.068 14.293 52.0702 14.293 71.0999C9.95625 71.421 6.2956 70.3842 3.38833 67.7234C1.33102 65.8332 0.336176 63.6128 0.336176 61.0987C0.336176 52.1986 0.336176 43.3077 0.336176 34.4076C0.336176 31.0127 0.326517 27.6178 0.326517 24.223C0.326517 20.1216 2.65427 17.1396 6.93307 15.121C9.13526 14.0934 11.5789 13.9374 14.0612 14.0108Z" fill="url(#paint1_linear)"/>
<path d="M60.5288 14.0016C63.0304 14.0016 63.2815 14.0016 65.7735 14.0016C65.7735 33.068 65.7735 52.0702 65.7735 71.1091C48.7645 71.1091 35.8991 71.1091 18.8321 71.1091C18.8321 52.0794 18.8321 33.0772 18.8321 14.02C21.3241 14.02 21.865 14.02 24.4052 14.02C24.4052 13.7814 24.4052 13.5979 24.4052 13.4236C24.4052 11.3775 24.4149 9.32218 24.3956 7.27607C24.3762 5.84472 24.7819 4.59687 25.9603 3.62428C26.7909 2.9453 27.7471 2.59664 28.8289 2.59664C32.1805 2.58746 35.5224 2.58746 38.874 2.58746C44.505 2.58746 50.1457 2.59664 55.7767 2.58746C57.2545 2.58746 58.4811 3.04623 59.447 4.11057C60.2197 4.96388 60.5095 5.964 60.5095 7.08339C60.4998 9.2396 60.5095 11.3958 60.5095 13.552C60.4998 13.6713 60.5095 13.8089 60.5288 14.0016ZM30.4516 14.0016C30.6834 14.0016 30.8572 14.0016 31.0311 14.0016C33.6969 14.0016 36.3724 14.0016 39.0382 14.0016C44.0221 14.0016 49.0156 14.0016 53.9995 14.0108C54.3955 14.0108 54.4824 13.8915 54.4824 13.5337C54.4631 11.928 54.4824 10.3223 54.4824 8.71661C54.4824 8.58815 54.4631 8.45969 54.4438 8.32206C46.4271 8.32206 38.4586 8.32206 30.4516 8.32206C30.4516 10.2122 30.4516 12.0656 30.4516 14.0016Z" fill="white"/>
<mask id="mask0" mask-type="alpha" maskUnits="userSpaceOnUse" x="18" y="2" width="48" height="70">
<path d="M60.5288 14.0016C63.0304 14.0016 63.2815 14.0016 65.7734 14.0016C65.7734 33.068 65.7734 52.0702 65.7734 71.1091C48.7645 71.1091 35.8991 71.1091 18.8321 71.1091C18.8321 52.0794 18.8321 33.0772 18.8321 14.02C21.3241 14.02 21.865 14.02 24.4052 14.02C24.4052 13.7814 24.4052 13.5979 24.4052 13.4236C24.4052 11.3775 24.4149 9.32218 24.3955 7.27607C24.3762 5.84472 24.7819 4.59687 25.9602 3.62428C26.7909 2.9453 27.7471 2.59664 28.8289 2.59664C32.1805 2.58746 35.5224 2.58746 38.8739 2.58746C44.505 2.58746 50.1457 2.59664 55.7767 2.58746C57.2545 2.58746 58.4811 3.04623 59.447 4.11057C60.2197 4.96388 60.5094 5.964 60.5094 7.08339C60.4998 9.2396 60.5094 11.3958 60.5094 13.552C60.4998 13.6713 60.5094 13.8089 60.5288 14.0016ZM30.4515 14.0016C30.6834 14.0016 30.8572 14.0016 31.0311 14.0016C33.6969 14.0016 36.3723 14.0016 39.0381 14.0016C44.022 14.0016 49.0156 14.0016 53.9995 14.0108C54.3955 14.0108 54.4824 13.8915 54.4824 13.5337C54.4631 11.928 54.4824 10.3223 54.4824 8.71661C54.4824 8.58815 54.4631 8.45969 54.4438 8.32206C46.427 8.32206 38.4586 8.32206 30.4515 8.32206C30.4515 10.2122 30.4515 12.0656 30.4515 14.0016Z" fill="#F7F9FC"/>
</mask>
<g mask="url(#mask0)">
<path d="M61.4921 0H22.442V14.02H61.4921V0Z" fill="url(#paint2_linear)"/>
</g>
<path d="M84.55 24.0762C84.55 20.2959 82.3768 17.4791 78.5133 15.433C76.1373 14.176 73.4425 13.9374 70.6801 13.9925C70.2551 14.0016 70.3131 14.2127 70.3131 14.4329C70.3131 21.0391 70.3131 27.6362 70.3131 34.2425C70.3131 45.8493 70.3131 57.447 70.3034 69.0538C70.3034 69.7236 70.3034 70.3934 70.3034 71.1183C72.042 71.1733 73.6936 71.1825 75.3163 70.8155C80.8024 69.586 84.5404 65.7048 84.5404 61.1263C84.5597 48.7854 84.55 36.4262 84.55 24.0762Z" fill="url(#paint3_linear)"/>
<path d="M46.881 46.7852C46.881 47.9688 46.881 49.0882 46.881 50.2168C46.881 51.4921 46.881 52.7675 46.881 54.0337C46.881 54.7953 46.4754 55.199 45.6834 55.199C43.5005 55.2082 41.3176 55.2082 39.1347 55.199C38.4103 55.199 38.0047 54.7677 38.0047 54.0429C38.0047 51.7674 38.0047 49.4919 38.0047 47.2164C38.0047 47.088 38.0047 46.9503 38.0047 46.7852C37.8212 46.7852 37.6859 46.7852 37.5411 46.7852C35.1843 46.7852 32.818 46.7852 30.4612 46.7852C29.5243 46.7852 29.138 46.4273 29.138 45.5373C29.138 43.5646 29.138 41.5919 29.138 39.6192C29.138 38.72 29.5147 38.3622 30.4516 38.3622C32.7986 38.3622 35.1457 38.3622 37.4928 38.3622C37.6473 38.3622 37.7922 38.3622 37.995 38.3622C37.995 38.2154 37.995 38.0961 37.995 37.9768C37.995 35.7013 37.995 33.4258 37.995 31.1504C37.995 30.3062 38.391 29.9392 39.2796 29.9392C41.3563 29.9392 43.4329 29.9392 45.5095 29.9392C46.485 29.9392 46.8617 30.2879 46.8617 31.2329C46.8714 33.4901 46.8617 35.738 46.8617 37.9952C46.8617 38.1053 46.8617 38.2154 46.8617 38.3714C47.0163 38.3714 47.1515 38.3714 47.277 38.3714C49.6724 38.3714 52.0678 38.3714 54.4631 38.3805C55.3421 38.3805 55.7188 38.7476 55.7188 39.5825C55.7188 41.5644 55.7188 43.5463 55.7188 45.5282C55.7188 46.4365 55.3517 46.7852 54.4148 46.7852C52.0291 46.7852 49.6434 46.7852 47.2674 46.7944C47.1708 46.7852 47.0549 46.7852 46.881 46.7852Z" fill="url(#paint4_linear)"/>
</g>
<defs>
<linearGradient id="paint0_linear" x1="14.2939" y1="42.5657" x2="70.3104" y2="42.5657" gradientUnits="userSpaceOnUse">
<stop stop-color="#B0F4FF"/>
<stop offset="1" stop-color="#69DCFC"/>
</linearGradient>
<linearGradient id="paint1_linear" x1="0.336176" y1="42.5747" x2="14.2944" y2="42.5747" gradientUnits="userSpaceOnUse">
<stop stop-color="#6CBCFC"/>
<stop offset="1" stop-color="#458DFC"/>
</linearGradient>
<linearGradient id="paint2_linear" x1="22.4379" y1="7.00849" x2="61.4904" y2="7.00849" gradientUnits="userSpaceOnUse">
<stop stop-color="#6CBCFC"/>
<stop offset="1" stop-color="#458DFC"/>
</linearGradient>
<linearGradient id="paint3_linear" x1="70.3058" y1="42.569" x2="84.5508" y2="42.569" gradientUnits="userSpaceOnUse">
<stop stop-color="#6CBCFC"/>
<stop offset="1" stop-color="#458DFC"/>
</linearGradient>
<linearGradient id="paint4_linear" x1="29.1439" y1="42.5783" x2="55.7381" y2="42.5783" gradientUnits="userSpaceOnUse">
<stop stop-color="#6CBCFC"/>
<stop offset="1" stop-color="#458DFC"/>
</linearGradient>
<clipPath id="clip0">
<rect width="84.2143" height="71.1549" fill="white" transform="translate(0.335714)"/>
</clipPath>
</defs>
</svg>
