<svg width="68" height="85" viewBox="0 0 68 85" fill="none" xmlns="http://www.w3.org/2000/svg">
<g clip-path="url(#clip0)">
<path d="M67.0776 26.4806L66.8724 66.2815L66.8382 73.9797C66.804 80.0968 60.5792 85.0319 52.9179 85L14.6459 84.8403C7.00175 84.7924 0.811184 79.8093 0.845386 73.6762L1.0848 26.1772C1.1019 21.226 5.20614 17.0415 10.8153 15.652L10.8324 13.0966V11.7869L57.4668 11.9946L57.4497 15.8596C63.0417 17.313 67.0947 21.5135 67.0776 26.4806Z" fill="url(#paint0_linear)"/>
<path d="M60.9383 1.77283V2.1242L60.9041 6.27678L60.8699 10.3495V10.8446C60.8699 11.6112 60.1859 12.2341 59.365 12.2341H59.0059L56.7486 12.2182L54.2689 12.2022L52.0116 12.1862L49.532 12.1702L47.2404 12.1383L44.7608 12.1223L42.5034 12.1064L40.0067 12.0904L37.7323 12.0744L35.2526 12.0584L32.9953 12.0265L30.5156 12.0105L28.2583 11.9945L25.7616 11.9786L23.4871 11.9626L21.0246 11.9466L18.7672 11.9307L16.2876 11.9147L14.0132 11.8987L11.5335 11.8828L9.25908 11.8668H8.89996C8.07911 11.8668 7.41217 11.2279 7.41217 10.4613V10.4453V10.0939L7.48058 1.88463V1.38952C7.48058 0.622886 8.16462 0 9.00257 0H9.36169L14.1158 0.0319429L18.8698 0.0638858L21.1443 0.0798572L23.6239 0.0958286L25.8813 0.1118L30.6182 0.159714L33.0979 0.175686L35.3552 0.191657L37.8349 0.207629L40.0922 0.2236L42.5719 0.239572L44.8292 0.255543L47.3088 0.271514L49.5662 0.287486L52.08 0.319429L54.3373 0.3354L56.817 0.351372L59.0914 0.367343H59.4506C60.2885 0.383315 60.9383 1.0062 60.9383 1.77283Z" fill="url(#paint1_linear)"/>
<path d="M60.9383 2.14016L60.9041 6.27676L60.8699 10.3495L58.8349 10.3335L56.133 10.3175L53.6533 10.3016H50.9342L48.4546 10.2856L45.7526 10.2696L43.273 10.2537H40.5539L38.0743 10.2377L35.3552 10.2217L32.8927 10.2057H30.1736L27.694 10.1898L24.9749 10.1738L22.4953 10.1578H19.7933L17.3137 10.1419L14.5946 10.1259L12.115 10.1099H9.41299L7.41217 10.0939L7.48058 1.88461L12.2347 1.90058L17.4163 1.93253L19.8959 1.9485L22.615 1.96447H25.0946L30.2762 1.99641L32.9953 2.01238H35.4749L38.194 2.02836L40.6565 2.04433L43.3756 2.0603H45.8552L48.5743 2.07627L51.0369 2.09224L53.7559 2.10821H56.2356L58.9546 2.12418L60.9383 2.14016Z" fill="url(#paint2_linear)"/>
<path d="M67.0274 34.8841L1.03464 34.5927L0.896265 61.9198L66.8891 62.2112L67.0274 34.8841Z" fill="#F7F9FC"/>
<path d="M67.0391 34.884L1.04631 34.5927L1.02141 39.5119L67.0142 39.8032L67.0391 34.884Z" fill="#FBFCF7"/>
<path d="M26.7705 45.5803L22.5124 45.5644L22.5295 41.5715L16.6638 41.5555L16.6467 45.5324L12.3886 45.5165L12.3544 50.9787L16.6125 50.9947L16.5954 54.9875L22.4611 55.0035L22.4782 51.0266L26.7363 51.0426L26.7705 45.5803Z" fill="url(#paint3_linear)"/>
<path d="M55.7054 46.906L34.6028 46.8102C34.0384 46.8102 33.5767 46.3789 33.5767 45.8519V45.4047C33.5767 44.8776 34.0384 44.4464 34.6028 44.4464L55.7054 44.5422C56.2697 44.5422 56.7315 44.9734 56.7315 45.5005V45.9477C56.7315 46.4748 56.2697 46.906 55.7054 46.906Z" fill="url(#paint4_linear)"/>
<path opacity="0.5" d="M55.6883 52.7675L34.5857 52.6717C34.0213 52.6717 33.5596 52.2404 33.5596 51.7134V51.2662C33.5596 50.7391 34.0213 50.3079 34.5857 50.3079L55.6883 50.4037C56.2526 50.4037 56.7144 50.8349 56.7144 51.362V51.8092C56.7144 52.3363 56.2526 52.7675 55.6883 52.7675Z" fill="url(#paint5_linear)"/>
<path opacity="0.08" d="M7.41217 1.77283V2.1242L7.44637 6.27677L7.48058 10.3335V10.8286C7.48058 11.5953 8.16462 12.2181 8.98546 12.2181H9.34459L11.619 12.2022L14.0987 12.1862L16.356 12.1702L18.8356 12.1543L21.093 12.1383L23.5726 12.1223L25.83 12.1063L28.3096 12.0904L30.584 12.0744L33.0637 12.0584L35.321 12.0425L37.8007 12.0265L40.058 12.0105L42.5376 11.9945L44.8121 11.9786L47.2917 11.9626L49.5491 11.9466L52.0287 11.9307L54.286 11.9147L56.7657 11.8987L59.0401 11.8827H59.3992C60.2201 11.8827 60.887 11.2439 60.887 10.4773V10.4613V10.1099C34.4318 11.18 8.89996 0.36734 8.89996 0.36734C8.07911 0.383312 7.41217 1.0062 7.41217 1.77283Z" fill="#1A6FB5"/>
</g>
<defs>
<linearGradient id="paint0_linear" x1="0.845386" y1="11.3333" x2="56.6648" y2="93.8219" gradientUnits="userSpaceOnUse">
<stop stop-color="#6CBCFC"/>
<stop offset="1" stop-color="#458DFC"/>
</linearGradient>
<linearGradient id="paint1_linear" x1="-673.636" y1="-39.931" x2="-29.1666" y2="8.13214" gradientUnits="userSpaceOnUse">
<stop stop-color="#B0F4FF"/>
<stop offset="0.0525488" stop-color="#A9F2FF"/>
<stop offset="0.2879" stop-color="#8DE8FE"/>
<stop offset="0.5247" stop-color="#79E1FD"/>
<stop offset="0.7618" stop-color="#6DDDFC"/>
<stop offset="1" stop-color="#69DCFC"/>
</linearGradient>
<linearGradient id="paint2_linear" x1="7.41956" y1="6.1131" x2="60.9406" y2="6.1131" gradientUnits="userSpaceOnUse">
<stop stop-color="#B0F4FF"/>
<stop offset="0.0525488" stop-color="#A9F2FF"/>
<stop offset="0.2879" stop-color="#8DE8FE"/>
<stop offset="0.5247" stop-color="#79E1FD"/>
<stop offset="0.7618" stop-color="#6DDDFC"/>
<stop offset="1" stop-color="#69DCFC"/>
</linearGradient>
<linearGradient id="paint3_linear" x1="24.3777" y1="43.0953" x2="15.1086" y2="54.54" gradientUnits="userSpaceOnUse">
<stop stop-color="#6CBCFC"/>
<stop offset="1" stop-color="#458DFC"/>
</linearGradient>
<linearGradient id="paint4_linear" x1="56.935" y1="45.671" x2="31.775" y2="45.671" gradientUnits="userSpaceOnUse">
<stop stop-color="#6CBCFC"/>
<stop offset="1" stop-color="#458DFC"/>
</linearGradient>
<linearGradient id="paint5_linear" x1="33.558" y1="51.5322" x2="56.7147" y2="51.5322" gradientUnits="userSpaceOnUse">
<stop stop-color="#6CBCFC"/>
<stop offset="1" stop-color="#458DFC"/>
</linearGradient>
<clipPath id="clip0">
<rect width="66.2322" height="85" fill="white" transform="translate(0.845377)"/>
</clipPath>
</defs>
</svg>
