<svg width="74" height="95" viewBox="0 0 74 95" fill="none" xmlns="http://www.w3.org/2000/svg">
<g clip-path="url(#clip0)">
<path d="M70.5267 0H2.70293C1.30803 0 0.18042 1.02822 0.18042 2.30017V92.7074C0.18042 93.9794 1.30803 95.0076 2.70293 95.0076H70.5267C71.9216 95.0076 73.0492 93.9794 73.0492 92.7074V2.30017C73.0408 1.02822 71.9132 0 70.5267 0Z" fill="url(#paint0_linear)"/>
<path d="M66.0747 4.09766H7.14654C5.79341 4.09766 4.69086 5.10303 4.69086 6.34451V81.0923C4.69086 82.3338 5.79341 83.3316 7.14654 83.3316H66.0747C67.4362 83.3316 68.5304 82.3262 68.5304 81.0923V6.34451C68.5304 5.10303 67.4362 4.09766 66.0747 4.09766Z" fill="white"/>
<path d="M48.6594 39.636H24.5702C23.4677 39.636 22.5739 38.821 22.5739 37.8157V15.8422C22.5739 14.8368 23.4677 14.0219 24.5702 14.0219H48.6594C49.7619 14.0219 50.6556 14.8368 50.6556 15.8422V37.8081C50.6556 38.8134 49.7619 39.636 48.6594 39.636Z" fill="url(#paint1_linear)"/>
<path d="M36.6148 92.5475C38.663 92.5475 40.3234 91.0335 40.3234 89.1658C40.3234 87.2981 38.663 85.7841 36.6148 85.7841C34.5666 85.7841 32.9062 87.2981 32.9062 89.1658C32.9062 91.0335 34.5666 92.5475 36.6148 92.5475Z" fill="white"/>
<path d="M57.6051 51.015H15.6162C14.5554 51.015 13.6867 50.2229 13.6867 49.2556C13.6867 48.2883 14.5554 47.4962 15.6162 47.4962H57.5967C58.6575 47.4962 59.5262 48.2883 59.5262 49.2556C59.5262 50.2229 58.6659 51.015 57.6051 51.015Z" fill="url(#paint2_linear)"/>
<path opacity="0.6" d="M50.497 60.764H14.9146C14.238 60.764 13.6951 60.2613 13.6951 59.652V59.5302C13.6951 58.9132 14.2463 58.4182 14.9146 58.4182H50.497C51.1735 58.4182 51.7165 58.9208 51.7165 59.5302V59.652C51.7248 60.2613 51.1735 60.764 50.497 60.764Z" fill="url(#paint3_linear)"/>
<path opacity="0.3" d="M43.7229 66.9562H14.7976C14.1879 66.9562 13.6867 66.4992 13.6867 65.9432V65.6081C13.6867 65.0521 14.1879 64.5951 14.7976 64.5951H43.7146C44.3243 64.5951 44.8255 65.0521 44.8255 65.6081V65.9432C44.8255 66.4992 44.3243 66.9562 43.7229 66.9562Z" fill="url(#paint4_linear)"/>
<path opacity="0.6" d="M47.3647 72.6914H14.8644C14.2213 72.6914 13.6951 72.2116 13.6951 71.6251V71.4118C13.6951 70.8254 14.2213 70.3456 14.8644 70.3456H47.3647C48.0079 70.3456 48.5341 70.8254 48.5341 71.4118V71.6251C48.5341 72.204 48.0079 72.6914 47.3647 72.6914Z" fill="url(#paint5_linear)"/>
<path d="M36.6872 26.1208C39.0991 26.1208 41.0543 24.3141 41.0543 22.0854C41.0543 19.8566 39.0991 18.05 36.6872 18.05C34.2753 18.05 32.3201 19.8566 32.3201 22.0854C32.3201 24.3141 34.2661 26.1208 36.6872 26.1208ZM36.6872 28.1385C33.7728 28.1385 27.9531 29.4892 27.9531 32.1739V33.1869C27.9531 33.7441 28.4464 34.2 29.0494 34.2H44.3433C44.9462 34.2 45.4396 33.7441 45.4396 33.1869V32.1739C45.4213 29.4977 39.6016 28.1385 36.6872 28.1385Z" fill="white"/>
</g>
<defs>
<linearGradient id="paint0_linear" x1="4.59479" y1="45.0301" x2="73.012" y2="51.3807" gradientUnits="userSpaceOnUse">
<stop stop-color="#6CBCFC"/>
<stop offset="1" stop-color="#458DFC"/>
</linearGradient>
<linearGradient id="paint1_linear" x1="20.3963" y1="19.2924" x2="51.5281" y2="36.6881" gradientUnits="userSpaceOnUse">
<stop stop-color="#B0F4FF"/>
<stop offset="0.0856277" stop-color="#A3F0FE"/>
<stop offset="0.2972" stop-color="#8AE7FD"/>
<stop offset="0.5161" stop-color="#77E1FD"/>
<stop offset="0.7451" stop-color="#6DDDFC"/>
<stop offset="1" stop-color="#69DCFC"/>
</linearGradient>
<linearGradient id="paint2_linear" x1="59.5303" y1="49.257" x2="13.6946" y2="49.257" gradientUnits="userSpaceOnUse">
<stop stop-color="#6CBCFC"/>
<stop offset="1" stop-color="#458DFC"/>
</linearGradient>
<linearGradient id="paint3_linear" x1="51.7224" y1="59.5877" x2="13.6946" y2="59.5877" gradientUnits="userSpaceOnUse">
<stop stop-color="#6CBCFC"/>
<stop offset="1" stop-color="#458DFC"/>
</linearGradient>
<linearGradient id="paint4_linear" x1="44.8263" y1="65.7799" x2="13.6946" y2="65.7799" gradientUnits="userSpaceOnUse">
<stop stop-color="#6CBCFC"/>
<stop offset="1" stop-color="#458DFC"/>
</linearGradient>
<linearGradient id="paint5_linear" x1="48.5334" y1="71.5124" x2="13.6946" y2="71.5124" gradientUnits="userSpaceOnUse">
<stop stop-color="#6CBCFC"/>
<stop offset="1" stop-color="#458DFC"/>
</linearGradient>
<clipPath id="clip0">
<rect width="72.8604" height="95" fill="white" transform="translate(0.18042)"/>
</clipPath>
</defs>
</svg>
