<svg width="179" height="41" viewBox="0 0 179 41" fill="none" xmlns="http://www.w3.org/2000/svg">
<path d="M65.7646 15.456H60.1966V12.912H74.4766V15.456H68.8846V30H65.7646V15.456ZM81.0295 17.592C81.4935 17.592 81.8935 17.656 82.2295 17.784L82.2055 20.52C81.6935 20.312 81.1655 20.208 80.6215 20.208C79.5975 20.208 78.8135 20.504 78.2695 21.096C77.7415 21.688 77.4775 22.472 77.4775 23.448V30H74.5015V21.312C74.5015 20.032 74.4375 18.888 74.3095 17.88H77.1175L77.3575 20.016C77.6615 19.232 78.1415 18.632 78.7975 18.216C79.4535 17.8 80.1975 17.592 81.0295 17.592ZM95.2576 17.88V30H92.3056V28.056C91.9376 28.728 91.4096 29.256 90.7216 29.64C90.0336 30.008 89.2496 30.192 88.3696 30.192C87.3136 30.192 86.3776 29.936 85.5616 29.424C84.7456 28.912 84.1136 28.184 83.6656 27.24C83.2176 26.296 82.9936 25.2 82.9936 23.952C82.9936 22.704 83.2176 21.6 83.6656 20.64C84.1296 19.664 84.7696 18.912 85.5856 18.384C86.4016 17.84 87.3296 17.568 88.3696 17.568C89.2496 17.568 90.0336 17.76 90.7216 18.144C91.4096 18.512 91.9376 19.032 92.3056 19.704V17.88H95.2576ZM89.1856 27.84C90.1776 27.84 90.9456 27.496 91.4896 26.808C92.0336 26.12 92.3056 25.152 92.3056 23.904C92.3056 22.624 92.0336 21.64 91.4896 20.952C90.9456 20.264 90.1696 19.92 89.1616 19.92C88.1696 19.92 87.3936 20.28 86.8336 21C86.2896 21.704 86.0176 22.688 86.0176 23.952C86.0176 25.2 86.2896 26.16 86.8336 26.832C87.3936 27.504 88.1776 27.84 89.1856 27.84ZM104.261 14.712C102.965 14.712 102.317 15.424 102.317 16.848V17.88H105.029V20.136H102.317V30H99.3169V20.136H97.0129V17.88H99.3169V16.704C99.3169 15.264 99.6769 14.16 100.397 13.392C101.133 12.608 102.181 12.216 103.541 12.216C104.293 12.216 104.925 12.312 105.437 12.504V14.88C104.989 14.768 104.597 14.712 104.261 14.712ZM118.812 17.88V30H115.86V28.056C115.492 28.728 114.964 29.256 114.276 29.64C113.588 30.008 112.804 30.192 111.924 30.192C110.868 30.192 109.932 29.936 109.116 29.424C108.3 28.912 107.668 28.184 107.22 27.24C106.772 26.296 106.548 25.2 106.548 23.952C106.548 22.704 106.772 21.6 107.22 20.64C107.684 19.664 108.324 18.912 109.14 18.384C109.956 17.84 110.884 17.568 111.924 17.568C112.804 17.568 113.588 17.76 114.276 18.144C114.964 18.512 115.492 19.032 115.86 19.704V17.88H118.812ZM112.74 27.84C113.732 27.84 114.5 27.496 115.044 26.808C115.588 26.12 115.86 25.152 115.86 23.904C115.86 22.624 115.588 21.64 115.044 20.952C114.5 20.264 113.724 19.92 112.716 19.92C111.724 19.92 110.948 20.28 110.388 21C109.844 21.704 109.572 22.688 109.572 23.952C109.572 25.2 109.844 26.16 110.388 26.832C110.948 27.504 111.732 27.84 112.74 27.84ZM122.08 12.336H125.056V30H122.08V12.336ZM140.049 17.88V29.616C140.049 31.504 139.529 32.936 138.489 33.912C137.449 34.888 135.921 35.376 133.905 35.376C132.033 35.376 130.385 34.984 128.961 34.2L129.441 31.92C130.913 32.688 132.377 33.072 133.833 33.072C135.993 33.072 137.073 32 137.073 29.856V27.456C136.705 28.112 136.169 28.648 135.465 29.064C134.761 29.464 133.969 29.664 133.089 29.664C132.033 29.664 131.089 29.416 130.257 28.92C129.441 28.408 128.801 27.696 128.337 26.784C127.889 25.856 127.665 24.8 127.665 23.616C127.665 22.432 127.889 21.384 128.337 20.472C128.801 19.544 129.441 18.832 130.257 18.336C131.089 17.824 132.033 17.568 133.089 17.568C133.985 17.568 134.777 17.76 135.465 18.144C136.169 18.512 136.705 19.032 137.073 19.704V17.88H140.049ZM133.881 27.312C134.873 27.312 135.649 26.984 136.209 26.328C136.785 25.672 137.073 24.768 137.073 23.616C137.073 22.464 136.793 21.56 136.233 20.904C135.673 20.248 134.889 19.92 133.881 19.92C132.889 19.92 132.105 20.248 131.529 20.904C130.969 21.56 130.689 22.464 130.689 23.616C130.689 24.768 130.969 25.672 131.529 26.328C132.105 26.984 132.889 27.312 133.881 27.312ZM154.883 17.88V30H151.931V28.056C151.563 28.728 151.035 29.256 150.347 29.64C149.659 30.008 148.875 30.192 147.995 30.192C146.939 30.192 146.003 29.936 145.187 29.424C144.371 28.912 143.739 28.184 143.291 27.24C142.843 26.296 142.619 25.2 142.619 23.952C142.619 22.704 142.843 21.6 143.291 20.64C143.755 19.664 144.395 18.912 145.211 18.384C146.027 17.84 146.955 17.568 147.995 17.568C148.875 17.568 149.659 17.76 150.347 18.144C151.035 18.512 151.563 19.032 151.931 19.704V17.88H154.883ZM148.811 27.84C149.803 27.84 150.571 27.496 151.115 26.808C151.659 26.12 151.931 25.152 151.931 23.904C151.931 22.624 151.659 21.64 151.115 20.952C150.571 20.264 149.795 19.92 148.787 19.92C147.795 19.92 147.019 20.28 146.459 21C145.915 21.704 145.643 22.688 145.643 23.952C145.643 25.2 145.915 26.16 146.459 26.832C147.019 27.504 147.803 27.84 148.811 27.84ZM164.678 17.592C165.142 17.592 165.542 17.656 165.878 17.784L165.854 20.52C165.342 20.312 164.814 20.208 164.27 20.208C163.246 20.208 162.462 20.504 161.918 21.096C161.39 21.688 161.126 22.472 161.126 23.448V30H158.15V21.312C158.15 20.032 158.086 18.888 157.958 17.88H160.766L161.006 20.016C161.31 19.232 161.79 18.632 162.446 18.216C163.102 17.8 163.846 17.592 164.678 17.592Z" fill="#233348"/>
<ellipse cx="23.7527" cy="20.5" rx="22.8065" ry="20.5" fill="#458FF6"/>
<path d="M21.7521 15.244H15.7201V12.488H31.1901V15.244H25.1321V31H21.7521V15.244Z" fill="white"/>
</svg>
